<svg width="132.021875px" height="121.39999999999999px" xmlns="http://www.w3.org/2000/svg" viewBox="183.9890625 14.300000000000004 132.021875 121.39999999999999" style="background: rgba(0, 0, 0, 0);" preserveAspectRatio="xMidYMid"><defs><linearGradient id="editing-shiny-gradient" x1="0.04322727117869957" x2="0.9567727288213004" y1="0.2966316784620999" y2="0.7033683215379001" gradientUnits="objectBoundingBox"><stop offset="0.0" stop-color="#ffb200"></stop><stop offset="0.5" stop-color="#e10057"></stop><stop offset="1.0" stop-color="#5A1A80"></stop></linearGradient><linearGradient id="editing-shiny-gradient2" x1="0" x2="0" y1="0" y2="1"><stop offset="0.2" stop-color="#fff" stop-opacity="0.8"></stop><stop offset="0.8" stop-color="#fff" stop-opacity="0"></stop></linearGradient><filter id="editing-shiny2" x="-100%" y="-100%" width="300%" height="300%"><feMorphology operator="erode" radius="2"></feMorphology></filter><filter id="editing-shiny" x="-100%" y="-100%" width="300%" height="300%"><feFlood flood-color="#fff" result="flood"></feFlood><feConvolveMatrix in="SourceGraphic" result="conv" order="8,8" divisor="1" kernelMatrix="0 0 0 0 0 0 0 0 0 0 0 1 1 0 0 0 0 0 0 1 1 0 0 0 0 0 1 0 0 1 0 0 0 0 1 0 0 1 0 0 0 1 0 0 0 0 1 0 0 1 1 0 0 1 1 0 0 0 0 1 1 0 0 0 "></feConvolveMatrix><feOffset dx="0" dy="4" in="conv" result="offset"></feOffset><feComposite operator="in" in="flood" in2="offset" result="comp"></feComposite><feGaussianBlur in="offset" stdDeviation="3" result="shadow"></feGaussianBlur><feColorMatrix in="shadow" type="matrix" values="0.7 0 0 0 0  0 0.7 0 0 0  0 0 0.7 0 0  0 0 0 0.3 0" result="dark-shadow"></feColorMatrix><feOffset dx="0" dy="4" in="dark-shadow" result="offset-shadow"></feOffset><feOffset dx="0" dy="2" in="conv" result="offset-2"></feOffset><feComposite operator="out" in="offset" in2="offset-2" result="edge-diff"></feComposite><feGaussianBlur in="edge-diff" stdDeviation="1" result="edge-blur"></feGaussianBlur><feColorMatrix in="edge-blur" result="edge-shadow" type="matrix" values="0 0 0 0 0  0 0 0 0 0  0 0 0 0 0  0 0 0 0.5 0"></feColorMatrix><feComposite operator="in" in="edge-shadow" in2="offset" result="edge-shadow-in"></feComposite><feOffset dx="0" dy="1" in="edge-shadow-in" result="edge-shadow-final"></feOffset><feMerge result="out"><feMergeNode in="offset-shadow"></feMergeNode><feMergeNode in="comp"></feMergeNode><feMergeNode in="edge-shadow-final"></feMergeNode><feMergeNode in="SourceGraphic"></feMergeNode></feMerge></filter></defs><g filter="url(#editing-shiny)"><g transform="translate(208.36500227451324, 97.39999961853027)"><path d="M34.50-13.25L34.50-13.25L34.50-13.25Q36.16-12.03 36.16-9.44L36.16-9.44L36.16-9.44Q36.16-6.85 35.04-5.02L35.04-5.02L35.04-5.02Q33.92-3.20 31.74-1.79L31.74-1.79L31.74-1.79Q27.07 1.22 18.91 1.22L18.91 1.22L18.91 1.22Q10.75 1.22 6.30-3.04L6.30-3.04L6.30-3.04Q1.86-7.30 1.86-14.85L1.86-14.85L1.86-14.85Q1.86-25.54 7.42-33.66L7.42-33.66L7.42-33.66Q11.65-39.68 19.20-42.24L19.20-42.24L19.20-42.24Q23.10-43.52 26.94-43.52L26.94-43.52L26.94-43.52Q30.78-43.52 33.15-43.01L33.15-43.01L33.15-43.01Q35.52-42.50 37.31-41.47L37.31-41.47L37.31-41.47Q41.22-39.23 41.22-35.65L41.22-35.65L41.22-35.65Q41.22-32.38 38.14-29.95L38.14-29.95L38.14-29.95Q35.33-27.78 33.02-27.78L33.02-27.78L33.02-27.78Q30.72-27.78 29.76-28.10L29.76-28.10L29.76-28.10Q30.02-30.40 30.02-31.90L30.02-31.90L30.02-31.90Q30.02-33.41 29.95-34.50L29.95-34.50L29.95-34.50Q29.89-35.58 29.57-36.61L29.57-36.61L29.57-36.61Q28.93-38.98 26.98-38.98L26.98-38.98L26.98-38.98Q25.02-38.98 23.07-37.15L23.07-37.15L23.07-37.15Q21.12-35.33 19.46-32.26L19.46-32.26L19.46-32.26Q15.68-25.28 15.68-17.02L15.68-17.02L15.68-17.02Q15.68-13.06 17.92-10.78L17.92-10.78L17.92-10.78Q20.16-8.51 24.96-8.51L24.96-8.51L24.96-8.51Q28.54-8.51 31.94-10.88L31.94-10.88L31.94-10.88Q33.41-11.90 34.50-13.25ZM67.39-20.61L80.32-21.76L80.32-21.76Q75.71-11.65 75.71 0.06L75.71 0.06L75.71 0.06Q73.98 1.28 71.46 1.28L71.46 1.28L71.46 1.28Q68.93 1.28 67.33 0.10L67.33 0.10L67.33 0.10Q65.73-1.09 65.41-2.30L65.41-2.30L65.41-2.30Q63.81-0.64 61.22 0.32L61.22 0.32L61.22 0.32Q58.62 1.28 55.87 1.28L55.87 1.28L55.87 1.28Q53.12 1.28 50.72 0.38L50.72 0.38L50.72 0.38Q48.32-0.51 46.46-2.50L46.46-2.50L46.46-2.50Q42.37-6.85 42.37-15.10L42.37-15.10L42.37-15.10Q42.37-27.90 49.22-35.58L49.22-35.58L49.22-35.58Q56.26-43.52 68.74-43.52L68.74-43.52L68.74-43.52Q77.38-43.52 80.45-39.04L80.45-39.04L80.45-39.04Q81.41-37.63 81.41-35.94L81.41-35.94L81.41-35.94Q81.41-34.24 80.67-32.80L80.67-32.80L80.67-32.80Q79.94-31.36 78.78-30.21L78.78-30.21L78.78-30.21Q76.03-27.65 72.64-27.65L72.64-27.65L72.64-27.65Q71.30-27.65 70.02-28.10L70.02-28.10L70.02-28.10Q70.27-30.02 70.27-32.26L70.27-32.26L70.27-32.26Q70.27-34.50 70.11-35.52L70.11-35.52L70.11-35.52Q69.95-36.54 69.57-37.38L69.57-37.38L69.57-37.38Q68.74-39.10 66.91-39.10L66.91-39.10L66.91-39.10Q65.09-39.10 63.07-37.15L63.07-37.15L63.07-37.15Q61.06-35.20 59.46-32L59.46-32L59.46-32Q55.94-24.83 55.94-16.19L55.94-16.19L55.94-16.19Q55.94-12.22 57.47-9.41L57.47-9.41L57.47-9.41Q59.14-6.34 62.08-6.34L62.08-6.34L62.08-6.34Q63.10-6.34 64.03-6.85L64.03-6.85L64.03-6.85Q64.96-7.36 65.34-7.74L65.34-7.74L67.39-20.61Z" fill="url(#editing-shiny-gradient)"></path></g></g><g filter="url(#editing-shiny2)"><g transform="translate(208.36501371860504, 97.39999961853027)"><path d="M34.50-13.25L34.50-13.25L34.50-13.25Q36.16-12.03 36.16-9.44L36.16-9.44L36.16-9.44Q36.16-6.85 35.04-5.02L35.04-5.02L35.04-5.02Q33.92-3.20 31.74-1.79L31.74-1.79L31.74-1.79Q27.07 1.22 18.91 1.22L18.91 1.22L18.91 1.22Q10.75 1.22 6.30-3.04L6.30-3.04L6.30-3.04Q1.86-7.30 1.86-14.85L1.86-14.85L1.86-14.85Q1.86-25.54 7.42-33.66L7.42-33.66L7.42-33.66Q11.65-39.68 19.20-42.24L19.20-42.24L19.20-42.24Q23.10-43.52 26.94-43.52L26.94-43.52L26.94-43.52Q30.78-43.52 33.15-43.01L33.15-43.01L33.15-43.01Q35.52-42.50 37.31-41.47L37.31-41.47L37.31-41.47Q41.22-39.23 41.22-35.65L41.22-35.65L41.22-35.65Q41.22-32.38 38.14-29.95L38.14-29.95L38.14-29.95Q35.33-27.78 33.02-27.78L33.02-27.78L33.02-27.78Q30.72-27.78 29.76-28.10L29.76-28.10L29.76-28.10Q30.02-30.40 30.02-31.90L30.02-31.90L30.02-31.90Q30.02-33.41 29.95-34.50L29.95-34.50L29.95-34.50Q29.89-35.58 29.57-36.61L29.57-36.61L29.57-36.61Q28.93-38.98 26.98-38.98L26.98-38.98L26.98-38.98Q25.02-38.98 23.07-37.15L23.07-37.15L23.07-37.15Q21.12-35.33 19.46-32.26L19.46-32.26L19.46-32.26Q15.68-25.28 15.68-17.02L15.68-17.02L15.68-17.02Q15.68-13.06 17.92-10.78L17.92-10.78L17.92-10.78Q20.16-8.51 24.96-8.51L24.96-8.51L24.96-8.51Q28.54-8.51 31.94-10.88L31.94-10.88L31.94-10.88Q33.41-11.90 34.50-13.25ZM67.39-20.61L80.32-21.76L80.32-21.76Q75.71-11.65 75.71 0.06L75.71 0.06L75.71 0.06Q73.98 1.28 71.46 1.28L71.46 1.28L71.46 1.28Q68.93 1.28 67.33 0.10L67.33 0.10L67.33 0.10Q65.73-1.09 65.41-2.30L65.41-2.30L65.41-2.30Q63.81-0.64 61.22 0.32L61.22 0.32L61.22 0.32Q58.62 1.28 55.87 1.28L55.87 1.28L55.87 1.28Q53.12 1.28 50.72 0.38L50.72 0.38L50.72 0.38Q48.32-0.51 46.46-2.50L46.46-2.50L46.46-2.50Q42.37-6.85 42.37-15.10L42.37-15.10L42.37-15.10Q42.37-27.90 49.22-35.58L49.22-35.58L49.22-35.58Q56.26-43.52 68.74-43.52L68.74-43.52L68.74-43.52Q77.38-43.52 80.45-39.04L80.45-39.04L80.45-39.04Q81.41-37.63 81.41-35.94L81.41-35.94L81.41-35.94Q81.41-34.24 80.67-32.80L80.67-32.80L80.67-32.80Q79.94-31.36 78.78-30.21L78.78-30.21L78.78-30.21Q76.03-27.65 72.64-27.65L72.64-27.65L72.64-27.65Q71.30-27.65 70.02-28.10L70.02-28.10L70.02-28.10Q70.27-30.02 70.27-32.26L70.27-32.26L70.27-32.26Q70.27-34.50 70.11-35.52L70.11-35.52L70.11-35.52Q69.95-36.54 69.57-37.38L69.57-37.38L69.57-37.38Q68.74-39.10 66.91-39.10L66.91-39.10L66.91-39.10Q65.09-39.10 63.07-37.15L63.07-37.15L63.07-37.15Q61.06-35.20 59.46-32L59.46-32L59.46-32Q55.94-24.83 55.94-16.19L55.94-16.19L55.94-16.19Q55.94-12.22 57.47-9.41L57.47-9.41L57.47-9.41Q59.14-6.34 62.08-6.34L62.08-6.34L62.08-6.34Q63.10-6.34 64.03-6.85L64.03-6.85L64.03-6.85Q64.96-7.36 65.34-7.74L65.34-7.74L67.39-20.61Z" fill="url(#editing-shiny-gradient2)"></path></g></g><style>text {
  font-size: 64px;
  font-family: Arial Black;
  dominant-baseline: central;
  text-anchor: middle;
}</style></svg>